<svg xmlns="http://www.w3.org/2000/svg" viewBox="0 0 1678 242"><defs><style>.cls-1{fill:#72cac9;}.cls-2{fill:#edd774;}.cls-3{fill:#e5e6e6;}.cls-4{fill:#f4afc2;}.cls-5{fill:#6d6f70;}</style></defs><title>bg</title><g id="Layer_2" data-name="Layer 2"><path class="cls-1" d="M76.9,46.5,60.46,170.08l28.4,3.78,19.06-19.44,13.31,23.75,28.4,3.78L166.08,58.37Zm47.75,83.1L110,138.51,98.26,126.09l12.48-21.47-6.82-21,14.78-10.09,11.62,13.6-13,18.35Z"/><path class="cls-2" d="M554.24,87.16l-4.29,124.59,15.48-14.45,14.45,15.48h.05l15.48-14.45,14.45,15.48h.05l15.48-14.45,14.45,15.48,4.29-124.59Zm33.57,81.23-10.4-9.2-11,8.46.5-14.44,11-9.06,10.38,9.8ZM589,134.09l-10.4-9.2-11,8.46.5-14.44,11-9.06,10.38,9.8Zm37.39,35.62-10.4-9.2L605,169l.5-14.44,11-9.06,10.38,9.8Zm1.18-34.29-10.4-9.2-11,8.46.5-14.44,11-9.06,10.38,9.8Z"/><path class="cls-3" d="M235.07,66l-10.71,124.2,28.55,2.46L271,172.41l14.4,23.11L314,198,324.7,73.78ZM300,158.52l-25.36-13L247.41,154l1.41-16.38L276.22,127l25.17,15.19Zm2.64-30.64-25.36-13L250,123.35,251.46,107l27.4-10.65L304,111.5Z"/><path class="cls-1" d="M1353,74.09l11,124.18,28.54-2.54,14.34-23.15,18.19,20.25,28.54-2.54-11-124.18Zm64.8,70.62-12.31,11.89-14.22-9.53,7.47-23.68-11.26-19,12.21-13.08L1414,102l-8.68,20.76Z"/><path class="cls-3" d="M1511.95,58,1528,181.67l28.41-3.7,13.38-23.71,19,19.5,28.41-3.7L1601.16,46.43Zm83.18,76.46-27.55-7.26-24.78,14.07L1540.68,125l24.49-16.26,27.84,9.45Zm-4-30.49-27.55-7.26-24.78,14.07-2.12-16.31,24.49-16.26L1589,87.7Z"/><path class="cls-4" d="M394.33,79.15,387.08,203.6l15.82-14.08L417,205.34H417l15.82-14.08,14.08,15.82H447L462.81,193l14.08,15.82,7.25-124.45ZM413.69,176l-9.88-11.11,11.11-9.88,9.89,11.11Zm1.66-28.46-9.88-11.11,11.11-9.88,9.88,11.11ZM417,119.13,407.12,108l11.11-9.89,9.88,11.11Zm35.9,59.2L443,167.22l11.11-9.89L464,168.44Zm1.66-28.46-9.88-11.11,11.11-9.88L465.67,140Zm1.66-28.46-9.89-11.11,11.11-9.88,9.89,11.11Z"/><path class="cls-1" d="M713.88,91.83l-1.1,124.66,28.65.25,16.52-21.64L774.08,217l28.65.25,1.1-124.66Zm57.62,76.59-13.41,10.64-13.22-10.87,9.74-22.84-9.36-20,13.42-11.83,13.21,12.06L761.22,145.4Z"/><path class="cls-2" d="M1193.58,84.35l7.18,124.46L1214.85,193l15.81,14.09h.05l14.09-15.81,15.81,14.09h.05l14.09-15.81,15.81,14.09L1283.4,79.17Zm40.89,77.8-11.2-8.2-10.18,9.44-.83-14.42,10.15-10,11.24,8.8Zm-2-34.26-11.2-8.2-10.18,9.44-.83-14.42,10.15-10,11.24,8.8Zm40.51,32-11.2-8.2-10.18,9.44-.83-14.42,10.15-10,11.24,8.8Zm-2-34.26-11.2-8.2-10.18,9.44-.83-14.42,10.15-10,11.24,8.8Z"/><path class="cls-3" d="M873.89,92.25l1,124.66,28.65-.24,16.15-21.92,16.51,21.65,28.65-.24-1-124.66Zm73.32,86-26.47-10.53-26.29,11-.14-16.44L920.59,149l26.49,12.75ZM947,147.45l-26.47-10.54-26.29,11-.14-16.44,26.28-13.18L946.83,131Z"/><path class="cls-4" d="M1033.84,90.38l4.05,124.6,14.48-15.46L1067.83,214h.05l14.48-15.46L1097.82,213h.05l14.48-15.46L1127.81,212l-4.05-124.6Zm28.05,94.74L1051,175l10.17-10.85,10.85,10.17Zm-.93-28.49-10.85-10.17,10.17-10.85,10.85,10.17Zm-.93-28.49L1049.19,118l10.17-10.85,10.85,10.17Zm41.12,55.7-10.85-10.17,10.17-10.85L1111.32,173Zm-.93-28.49-10.85-10.17,10.17-10.85,10.85,10.17Zm-.93-28.49-10.85-10.17,10.17-10.85L1109.47,116Z"/><path class="cls-3" d="M838.93,94C269.09,94,.43,34.46-2.22,33.86L-1,28.36c2.64.6,270.8,60,839.9,60s837.17-59.39,839.81-60l1.25,5.5C1677.35,34.46,1408.78,94,838.93,94Z"/><path class="cls-5" d="M149.63,172.08h-.19L121,168.29a1.41,1.41,0,0,1-1-.71l-12.39-22.11-17.74,18.1a1.39,1.39,0,0,1-1.19.41l-28.4-3.78a1.41,1.41,0,0,1-1.21-1.58L75.51,35a1.41,1.41,0,0,1,.54-.93,1.36,1.36,0,0,1,1-.28L166.27,45.7a1.41,1.41,0,0,1,1.21,1.58L151,170.86a1.41,1.41,0,0,1-1.4,1.22Zm-27.52-6.49,26.31,3.5L164.5,48.31,78.11,36.81,62,157.6l26.31,3.5,18.56-18.94a1.41,1.41,0,0,1,2.24.3ZM110,128.65a1.4,1.4,0,0,1-1-.44L97.24,115.79a1.41,1.41,0,0,1-.2-1.68L109.2,93.19l-6.63-20.4a1.41,1.41,0,0,1,.54-1.6l14.78-10.09a1.41,1.41,0,0,1,1.87.25L131.38,75a1.41,1.41,0,0,1,.08,1.73L118.84,94.48,126,117.92a1.41,1.41,0,0,1-.62,1.62l-14.62,8.9A1.4,1.4,0,0,1,110,128.65Zm-10-14,10.27,10.83L123,117.7l-7-23.06a1.42,1.42,0,0,1,.2-1.23L128.52,76l-10.09-11.8-12.86,8.78,6.5,20a1.41,1.41,0,0,1-.12,1.14Z"/><path class="cls-5" d="M639.85,205a1.41,1.41,0,0,1-1-.45l-13.49-14.45-14.45,13.49a1.63,1.63,0,0,1-1,.38,1.53,1.53,0,0,1-1-.45L595.35,189l-14.45,13.49a1.48,1.48,0,0,1-1,.38,1.53,1.53,0,0,1-1-.45L565.36,188,550.9,201.51a1.41,1.41,0,0,1-2.37-1.08l4.29-124.59a1.48,1.48,0,0,1,1.46-1.36l89.91,3.1A1.41,1.41,0,0,1,645.55,79l-4.29,124.59a1.41,1.41,0,0,1-1.41,1.36Zm-44.44-19.33a1.4,1.4,0,0,1,1,.45L610,200.57l14.48-13.52a1.41,1.41,0,0,1,2,.07l12.13,13,4.13-119.78-87.09-3-4.13,119.78,13-12.13a1.41,1.41,0,0,1,2,.07L580,199.54,594.46,186A1.4,1.4,0,0,1,595.42,185.65Zm31-25.8a1.4,1.4,0,0,1-.93-.35l-9.53-8.43-10.09,7.75a1.41,1.41,0,0,1-2.27-1.17l.5-14.44a1.4,1.4,0,0,1,.51-1l11-9.06a1.41,1.41,0,0,1,1.86.06l10.38,9.8a1.42,1.42,0,0,1,.44,1.07l-.5,14.44a1.41,1.41,0,0,1-1.41,1.36Zm-10.4-12a1.4,1.4,0,0,1,.93.35l8.17,7.22.37-10.81-9-8.51L606.86,144l-.37,10.81,8.64-6.64A1.4,1.4,0,0,1,616,147.83Zm-28.17,10.69a1.4,1.4,0,0,1-.93-.35l-9.53-8.43-10.09,7.75a1.41,1.41,0,0,1-2.27-1.17l.5-14.44a1.41,1.41,0,0,1,.51-1l11-9.06a1.41,1.41,0,0,1,1.86.06l10.38,9.8a1.41,1.41,0,0,1,.44,1.07l-.5,14.44a1.41,1.41,0,0,1-1.41,1.36Zm-10.4-12a1.4,1.4,0,0,1,.93.35l8.16,7.22.37-10.81-9-8.51-9.58,7.87-.37,10.81,8.64-6.64A1.4,1.4,0,0,1,577.41,146.5Zm50.16-20.95a1.4,1.4,0,0,1-.93-.35l-9.53-8.43L607,124.53a1.41,1.41,0,0,1-2.27-1.17l.5-14.44a1.4,1.4,0,0,1,.51-1l11-9.06a1.41,1.41,0,0,1,1.86.06l10.38,9.8a1.41,1.41,0,0,1,.44,1.07L629,124.2a1.41,1.41,0,0,1-1.41,1.36Zm-10.4-12a1.4,1.4,0,0,1,.93.35l8.16,7.22.37-10.81-9-8.51L608,109.66l-.37,10.81,8.64-6.64A1.4,1.4,0,0,1,617.16,113.54ZM589,124.23a1.4,1.4,0,0,1-.93-.35l-9.53-8.43-10.09,7.75a1.41,1.41,0,0,1-2.27-1.17l.5-14.44a1.4,1.4,0,0,1,.51-1l11-9.06a1.41,1.41,0,0,1,1.86.06l10.38,9.8a1.42,1.42,0,0,1,.44,1.07l-.5,14.44a1.41,1.41,0,0,1-1.41,1.36Zm-10.4-12a1.4,1.4,0,0,1,.93.35l8.17,7.22.37-10.81-9-8.51-9.58,7.87-.37,10.81,8.64-6.64A1.4,1.4,0,0,1,578.59,112.21Z"/><path class="cls-5" d="M314,188.12h-.12l-28.55-2.46a1.41,1.41,0,0,1-1.08-.66l-13.4-21.51L254,182.38a1.41,1.41,0,0,1-1.17.46l-28.55-2.46a1.41,1.41,0,0,1-1.28-1.52l10.71-124.2a1.42,1.42,0,0,1,1.52-1.28l89.63,7.73a1.41,1.41,0,0,1,1.28,1.52l-10.71,124.2a1.41,1.41,0,0,1-1.4,1.29Zm-27.72-5.22,26.44,2.28,10.47-121.4L236.35,56.3,225.88,177.7,252.32,180,270,160.2a1.43,1.43,0,0,1,1.17-.47,1.41,1.41,0,0,1,1.08.66ZM300,148.66a1.4,1.4,0,0,1-.64-.15l-24.85-12.72-26.66,8.28a1.41,1.41,0,0,1-1.82-1.47l1.41-16.38a1.41,1.41,0,0,1,.89-1.19l27.4-10.65a1.41,1.41,0,0,1,1.24.11l25.17,15.19a1.41,1.41,0,0,1,.68,1.33l-1.41,16.38a1.41,1.41,0,0,1-1.4,1.29Zm-25.36-15.8a1.42,1.42,0,0,1,.64.15l23.5,12,1.16-13.42-23.83-14.37-25.94,10.08L249,140.75l25.21-7.83A1.41,1.41,0,0,1,274.62,132.86Zm28-14.84a1.4,1.4,0,0,1-.64-.15l-24.85-12.72-26.66,8.28a1.41,1.41,0,0,1-1.82-1.47l1.41-16.38a1.41,1.41,0,0,1,.89-1.19l27.4-10.65a1.41,1.41,0,0,1,1.24.11L304.76,99a1.4,1.4,0,0,1,.68,1.33L304,116.73a1.41,1.41,0,0,1-1.4,1.29Zm-25.36-15.8a1.42,1.42,0,0,1,.64.15l23.5,12L302.55,101,278.73,86.61,252.79,96.69l-1.16,13.42,25.21-7.82A1.41,1.41,0,0,1,277.26,102.22Z"/><path class="cls-5" d="M1364.05,188.4a1.41,1.41,0,0,1-1.4-1.28l-11-124.18a1.41,1.41,0,0,1,1.28-1.53l89.61-8a1.35,1.35,0,0,1,1,.32,1.41,1.41,0,0,1,.5,1l11,124.18a1.41,1.41,0,0,1-1.28,1.53L1425.25,183a1.42,1.42,0,0,1-1.17-.46l-16.94-18.86-13.35,21.55a1.41,1.41,0,0,1-1.07.66l-28.54,2.54Zm-9.51-124.31,10.79,121.37,26.43-2.35,14-22.55a1.41,1.41,0,0,1,1.07-.66,1.38,1.38,0,0,1,1.17.46l17.72,19.73,26.43-2.35L1441.35,56.38Zm51,82.64a1.4,1.4,0,0,1-.78-.24L1390.51,137a1.4,1.4,0,0,1-.56-1.59l7.28-23.08-10.94-18.45a1.41,1.41,0,0,1,.18-1.68l12.21-13.08a1.41,1.41,0,0,1,1.87-.17l14.32,10.72a1.41,1.41,0,0,1,.45,1.67l-8.41,20.12L1419,132.73a1.41,1.41,0,0,1-.24,1.71l-12.31,11.89A1.41,1.41,0,0,1,1405.51,146.73ZM1393,135.21l12.39,8.31,10.7-10.34-11.93-21A1.41,1.41,0,0,1,1404,111l8.26-19.75-12.43-9.3-10.62,11.38L1400,111.39a1.4,1.4,0,0,1,.13,1.14Z"/><path class="cls-5" d="M1528,171.8a1.41,1.41,0,0,1-1.4-1.23L1510.55,47a1.41,1.41,0,0,1,1.22-1.58L1601,33.77a1.39,1.39,0,0,1,1,.28,1.41,1.41,0,0,1,.54.93l16.09,123.62a1.41,1.41,0,0,1-1.22,1.58l-28.41,3.7a1.4,1.4,0,0,1-1.19-.41l-17.69-18.15-12.46,22.07a1.4,1.4,0,0,1-1,.7l-28.41,3.7ZM1513.53,48l15.72,120.83,26.31-3.42,13-23.1a1.4,1.4,0,0,1,1-.7,1.38,1.38,0,0,1,1.19.41l18.51,19,26.31-3.42L1599.94,36.74Zm29.27,83.46a1.41,1.41,0,0,1-1.4-1.23l-2.12-16.31a1.41,1.41,0,0,1,.62-1.36l24.49-16.26a1.43,1.43,0,0,1,1.23-.16l27.84,9.45a1.41,1.41,0,0,1,.94,1.15l2.12,16.31a1.41,1.41,0,0,1-1.76,1.54l-27-7.11-24.27,13.78A1.41,1.41,0,0,1,1542.8,131.45Zm-.61-17,1.74,13.36,23-13a1.38,1.38,0,0,1,1.05-.14l25.52,6.72L1591.72,108,1565.37,99ZM1538.83,101a1.41,1.41,0,0,1-1.4-1.23l-2.12-16.31a1.41,1.41,0,0,1,.62-1.36l24.49-16.26a1.42,1.42,0,0,1,1.23-.16l27.83,9.45a1.41,1.41,0,0,1,.94,1.15l2.12,16.31a1.41,1.41,0,0,1-1.76,1.54l-27-7.11-24.27,13.78A1.41,1.41,0,0,1,1538.83,101Zm-.61-17L1540,97.29l23-13a1.38,1.38,0,0,1,1.05-.14l25.52,6.72-1.74-13.36-26.34-8.95Z"/><path class="cls-5" d="M476.89,199a1.41,1.41,0,0,1-1.05-.47L462.7,183.73l-14.77,13.14a1.41,1.41,0,0,1-1,.35,1.53,1.53,0,0,1-1-.47L432.74,182,418,195.13a1.37,1.37,0,0,1-1.05.35,1.52,1.52,0,0,1-1-.47l-13.15-14.77L388,193.38a1.41,1.41,0,0,1-2.34-1.14l7.25-124.45a1.41,1.41,0,0,1,.47-1,1.52,1.52,0,0,1,1-.35l89.81,5.23a1.41,1.41,0,0,1,1.32,1.49L478.3,197.64a1.41,1.41,0,0,1-1.41,1.33Zm-14.08-18.64a1.4,1.4,0,0,1,1.05.47l11.82,13.28,7-119.65-87-5.07-7,119.65L402,177.2a1.4,1.4,0,0,1,2,.12l13.17,14.8,14.8-13.17a1.4,1.4,0,0,1,2,.12l13.17,14.8,14.8-13.17A1.4,1.4,0,0,1,462.81,180.33Zm-9.91-11.87a1.4,1.4,0,0,1-1.05-.47L442,156.88a1.41,1.41,0,0,1,.12-2L453.19,145a1.4,1.4,0,0,1,2,.12l9.89,11.11a1.41,1.41,0,0,1-.12,2l-11.11,9.89A1.4,1.4,0,0,1,452.9,168.46Zm-7.9-12.4,8,9,9-8-8-9Zm-31.32,10.12h-.08a1.41,1.41,0,0,1-1-.47l-9.89-11.11a1.41,1.41,0,0,1,.12-2L414,142.73a1.41,1.41,0,0,1,2,.12l9.89,11.11a1.41,1.41,0,0,1-.12,2l-11.11,9.89A1.41,1.41,0,0,1,413.69,166.18Zm-7.9-12.4,8,9,9-8-8-9ZM454.56,140a1.41,1.41,0,0,1-1.05-.47l-9.88-11.11a1.41,1.41,0,0,1,.12-2l11.11-9.89a1.5,1.5,0,0,1,1-.35,1.41,1.41,0,0,1,1,.47l9.89,11.11a1.41,1.41,0,0,1-.12,2l-11.11,9.88A1.4,1.4,0,0,1,454.56,140Zm-7.89-12.4,8,9,9-8-8-9Zm-31.32,10.12h-.08a1.41,1.41,0,0,1-1-.47l-9.89-11.11a1.41,1.41,0,0,1,.12-2l11.11-9.89a1.47,1.47,0,0,1,1-.35,1.41,1.41,0,0,1,1,.47l9.89,11.11a1.41,1.41,0,0,1-.12,2l-11.11,9.89A1.41,1.41,0,0,1,415.34,137.72Zm-7.9-12.4,8,9,9-8-8-9Zm48.77-13.77a1.4,1.4,0,0,1-1.05-.47L445.28,100a1.41,1.41,0,0,1,.12-2l11.11-9.89a1.4,1.4,0,0,1,2,.12l9.89,11.11a1.41,1.41,0,0,1-.12,2l-11.11,9.89A1.4,1.4,0,0,1,456.22,111.55Zm-7.9-12.4,8,9,9-8-8-9ZM417,109.27a1.4,1.4,0,0,1-1.05-.47l-9.89-11.11a1.41,1.41,0,0,1,.12-2l11.11-9.89a1.4,1.4,0,0,1,2,.12L429.16,97a1.41,1.41,0,0,1-.12,2l-11.11,9.89A1.4,1.4,0,0,1,417,109.27Zm-7.9-12.4,8,9,9-8-8-9Z"/><path class="cls-5" d="M802.73,207.42h0l-28.65-.25a1.4,1.4,0,0,1-1.12-.57l-15-20.42-15.38,20.15a1.22,1.22,0,0,1-1.13.55l-28.65-.25a1.41,1.41,0,0,1-1.4-1.42l1.1-124.66a1.4,1.4,0,0,1,.42-1,1.52,1.52,0,0,1,1-.4l90,.8a1.41,1.41,0,0,1,1.4,1.42L804.14,206A1.41,1.41,0,0,1,802.73,207.42Zm-27.93-3.06,26.54.23,1.08-121.84L715.27,82,714.2,203.82l26.53.24L756.83,183a1.41,1.41,0,0,1,2.25,0Zm-16.71-35.16a1.41,1.41,0,0,1-.89-.32L744,158a1.41,1.41,0,0,1-.4-1.64l9.49-22.26L744,114.67a1.41,1.41,0,0,1,.34-1.65l13.42-11.83a1.4,1.4,0,0,1,1.88,0l13.21,12.06a1.41,1.41,0,0,1,.29,1.71l-10.33,19.21,10,22.39a1.41,1.41,0,0,1-.41,1.68L759,168.89A1.41,1.41,0,0,1,758.09,169.19Zm-11.51-12.7L758.11,166l11.66-9.25-9.83-22a1.42,1.42,0,0,1,0-1.24l10.14-18.85-11.46-10.47L747,114.43l8.91,19a1.42,1.42,0,0,1,0,1.15Z"/><path class="cls-5" d="M1200.76,198.95a1.41,1.41,0,0,1-1.41-1.33l-7.18-124.46a1.41,1.41,0,0,1,1.33-1.49l89.81-5.18a1.35,1.35,0,0,1,1.49,1.33L1292,192.28a1.41,1.41,0,0,1-2.34,1.13l-14.76-13.15L1261.72,195a1.42,1.42,0,0,1-1,.47,1.61,1.61,0,0,1-1.07-.35L1244.92,182l-13.15,14.76a1.41,1.41,0,0,1-1,.47,1.65,1.65,0,0,1-1.07-.35L1215,183.71l-13.15,14.76A1.41,1.41,0,0,1,1200.76,198.95Zm-5.69-124.54,6.9,119.66,11.83-13.27a1.4,1.4,0,0,1,1-.47,1.54,1.54,0,0,1,1,.35l14.79,13.18,13.18-14.79a1.41,1.41,0,0,1,2-.12l14.79,13.18,13.18-14.79a1.41,1.41,0,0,1,2-.12L1289,189l-6.9-119.66Zm18,79.11a1.41,1.41,0,0,1-1.41-1.33l-.83-14.42a1.4,1.4,0,0,1,.42-1.08l10.15-10a1.41,1.41,0,0,1,1.86-.11l11.24,8.8a1.4,1.4,0,0,1,.54,1l.83,14.42a1.41,1.41,0,0,1-.73,1.32,1.42,1.42,0,0,1-1.51-.1l-10.26-7.52-9.33,8.65A1.4,1.4,0,0,1,1213.09,153.52Zm.61-15.28.62,10.8,8-7.41a1.41,1.41,0,0,1,1.79-.1l8.79,6.44-.62-10.8-9.76-7.65Zm37.92,13.05a1.41,1.41,0,0,1-1.41-1.33l-.83-14.42a1.4,1.4,0,0,1,.42-1.08l10.15-10a1.41,1.41,0,0,1,1.86-.11l11.24,8.8a1.4,1.4,0,0,1,.54,1l.83,14.42a1.41,1.41,0,0,1-2.24,1.22l-10.26-7.52-9.33,8.65A1.4,1.4,0,0,1,1251.62,151.3Zm.61-15.28.62,10.8,8-7.41a1.41,1.41,0,0,1,1.79-.1l8.79,6.44-.62-10.8-9.76-7.65Zm-41.12-16.76a1.41,1.41,0,0,1-1.41-1.33l-.83-14.42a1.4,1.4,0,0,1,.42-1.08l10.15-10a1.41,1.41,0,0,1,1.86-.11l11.24,8.8a1.4,1.4,0,0,1,.54,1l.83,14.42a1.41,1.41,0,0,1-2.24,1.22l-10.26-7.52-9.33,8.65A1.4,1.4,0,0,1,1211.12,119.26Zm.61-15.28.62,10.8,8-7.41a1.41,1.41,0,0,1,1.79-.1l8.79,6.44-.62-10.8-9.76-7.65ZM1249.65,117a1.41,1.41,0,0,1-1.41-1.33l-.83-14.42a1.4,1.4,0,0,1,.42-1.08l10.15-10a1.41,1.41,0,0,1,1.86-.11l11.23,8.8a1.4,1.4,0,0,1,.54,1l.83,14.42a1.41,1.41,0,0,1-2.24,1.22L1259.94,108l-9.33,8.65A1.4,1.4,0,0,1,1249.65,117Zm.61-15.27.62,10.8,8-7.41a1.4,1.4,0,0,1,1.79-.1l8.79,6.44-.62-10.8L1259.08,93Z"/><path class="cls-5" d="M874.92,207a1.41,1.41,0,0,1-1.41-1.4L872.48,81a1.41,1.41,0,0,1,1.4-1.42l90-.74h0a1.41,1.41,0,0,1,1.41,1.4l1,124.66a1.41,1.41,0,0,1-1.4,1.42l-28.65.24a1.26,1.26,0,0,1-1.13-.55l-15.37-20.16-15,20.41a1.41,1.41,0,0,1-1.12.57l-28.65.24Zm.39-124.67,1,121.84,26.54-.22,15.73-21.35a1.41,1.41,0,0,1,1.12-.57,1.14,1.14,0,0,1,1.13.55l16.08,21.09,26.54-.22-1-121.84Zm19.14,86.4a1.41,1.41,0,0,1-1.41-1.4l-.13-16.44a1.41,1.41,0,0,1,.78-1.27L920,136.48a1.42,1.42,0,0,1,1.24,0l26.49,12.75a1.41,1.41,0,0,1,.8,1.26l.14,16.44a1.41,1.41,0,0,1-1.93,1.32l-25.94-10.32L895,168.66A1.4,1.4,0,0,1,894.45,168.77Zm1.28-17,.11,13.47,24.36-10.16a1.41,1.41,0,0,1,1.06,0l24.53,9.76-.11-13.47L920.61,139.3ZM894.2,138a1.41,1.41,0,0,1-1.41-1.4l-.13-16.44a1.41,1.41,0,0,1,.78-1.27l26.28-13.18a1.42,1.42,0,0,1,1.24,0l26.49,12.75a1.41,1.41,0,0,1,.8,1.26l.13,16.44a1.41,1.41,0,0,1-1.93,1.32l-25.94-10.32-25.77,10.75A1.4,1.4,0,0,1,894.2,138Zm1.28-17,.11,13.47L920,124.34a1.4,1.4,0,0,1,1.06,0l24.53,9.76-.11-13.47-25.08-12.07Z"/><path class="cls-5" d="M1037.89,205.11a1.37,1.37,0,0,1-.5-.09,1.41,1.41,0,0,1-.91-1.27l-4.05-124.6a1.41,1.41,0,0,1,1.36-1.45l89.92-2.93a1.33,1.33,0,0,1,1,.38,1.42,1.42,0,0,1,.45,1l4.05,124.6a1.41,1.41,0,0,1-2.37,1.07l-14.43-13.52-13.52,14.43a1.42,1.42,0,0,1-1,.45,1.53,1.53,0,0,1-1.05-.38l-14.43-13.52-13.52,14.43a1.42,1.42,0,0,1-1,.45,1.69,1.69,0,0,1-1.05-.38l-14.43-13.52-13.52,14.43A1.41,1.41,0,0,1,1037.89,205.11Zm14.48-18.27a1.4,1.4,0,0,1,1,.38l14.45,13.54,13.54-14.45a1.41,1.41,0,0,1,2-.06l14.45,13.54,13.54-14.45a1.41,1.41,0,0,1,2-.06l13,12.15-3.9-119.79-87.1,2.83,3.9,119.79,12.16-13A1.41,1.41,0,0,1,1052.37,186.84Zm9.52-11.58a1.4,1.4,0,0,1-1-.38l-10.85-10.17a1.41,1.41,0,0,1-.07-2l10.17-10.85a1.41,1.41,0,0,1,1-.44,1.29,1.29,0,0,1,1,.38L1073,162a1.41,1.41,0,0,1,.07,2l-10.17,10.85A1.41,1.41,0,0,1,1061.89,175.25ZM1053,163.62l8.79,8.24,8.24-8.79-8.79-8.24ZM1101.16,174a1.41,1.41,0,0,1-1-.38l-10.85-10.17a1.41,1.41,0,0,1-.07-2l10.17-10.85a1.41,1.41,0,0,1,2-.06l10.85,10.17a1.41,1.41,0,0,1,.07,2l-10.17,10.85a1.41,1.41,0,0,1-1,.44Zm-8.86-11.64,8.79,8.24,8.24-8.8-8.79-8.24ZM1061,146.77a1.41,1.41,0,0,1-1-.38l-10.85-10.17a1.41,1.41,0,0,1-.07-2l10.17-10.85a1.41,1.41,0,0,1,2-.06l10.85,10.17a1.41,1.41,0,0,1,.07,2L1062,146.32a1.41,1.41,0,0,1-1,.44Zm-8.86-11.64,8.79,8.24,8.24-8.8-8.79-8.24Zm48.12,10.36a1.4,1.4,0,0,1-1-.38l-10.85-10.17a1.41,1.41,0,0,1-.07-2l10.17-10.85a1.41,1.41,0,0,1,1-.44,1.3,1.3,0,0,1,1,.38l10.85,10.17a1.41,1.41,0,0,1,.07,2L1101.26,145A1.41,1.41,0,0,1,1100.23,145.49Zm-8.86-11.64,8.79,8.24,8.24-8.79-8.79-8.24ZM1060,118.28a1.4,1.4,0,0,1-1-.38l-10.85-10.17a1.41,1.41,0,0,1-.07-2l10.17-10.85a1.41,1.41,0,0,1,1-.44,1.33,1.33,0,0,1,1,.38L1071.17,105a1.41,1.41,0,0,1,.07,2l-10.17,10.85A1.41,1.41,0,0,1,1060,118.28Zm-8.86-11.64,8.79,8.24,8.24-8.79-8.79-8.24ZM1099.3,117a1.4,1.4,0,0,1-1-.38l-10.85-10.17a1.41,1.41,0,0,1-.07-2l10.17-10.85a1.41,1.41,0,0,1,1-.44,1.36,1.36,0,0,1,1,.38l10.85,10.17a1.41,1.41,0,0,1,.07,2l-10.17,10.85A1.41,1.41,0,0,1,1099.3,117Zm-8.86-11.64,8.79,8.24,8.24-8.79-8.79-8.24Z"/><path class="cls-5" d="M838.93,82.31C269.24,82.31.74,22.81-1.9,22.21A1.41,1.41,0,0,1-3,20.52a1.41,1.41,0,0,1,1.68-1.06c2.64.6,270.9,60,840.21,60s837.48-59.42,840.13-60a1.41,1.41,0,0,1,.62,2.75C1677,22.81,1408.62,82.31,838.93,82.31Z"/></g></svg>