<svg xmlns="http://www.w3.org/2000/svg" viewBox="0 0 1224 143"><defs><style>.cls-1{fill:#72cac9;}.cls-2{fill:#f6b0c3;}.cls-3{fill:#eed873;}.cls-4{fill:none;stroke:#6d6d70;stroke-linecap:round;stroke-linejoin:round;stroke-width:3px;}</style></defs><title>material</title><g id="Layer_2" data-name="Layer 2"><path class="cls-1" d="M68.22,129.21q-25,0-39.51-12.71T14.19,80.6q0-14.17,4.65-24.86A41.74,41.74,0,0,1,32,38.66Q48.77,26,76.27,26a134.32,134.32,0,0,1,35.55,4.86q6.8,2.22,6.81,11,0,11.95-7.5,11.94-1.25,0-8.19-1.11a72.57,72.57,0,0,0-9.72-1.11q-9.86,0-15.21,6.87a25.9,25.9,0,0,0-5.35,16.39,28.67,28.67,0,0,0,5,16.74,16.4,16.4,0,0,0,13.61,7.5q5.83.28,20.69.28,7.22,0,7.92,6.81a30.83,30.83,0,0,1,.42,5.07,33.38,33.38,0,0,1-.42,5.21q-.83,5-7.78,7.29t-20,3.89A198.37,198.37,0,0,1,68.22,129.21Z"/><path class="cls-1" d="M182.38,129.48q-51.8,0-51.8-37.78,0-17.92,13.19-27.78t38.61-9.86q25.42,0,38.61,9.86t13.19,27.78Q234.18,129.48,182.38,129.48Zm0-22.22q8.19,0,8.19-15.55,0-7.08-1.67-10.9T182.38,77q-4.86,0-6.53,3.82t-1.67,10.9Q174.18,107.26,182.38,107.26Z"/><path class="cls-1" d="M278.62,108.23a7,7,0,0,0-3.26-6.11,24.85,24.85,0,0,0-7.92-3.4q-4.66-1.18-9.37-2.78a17.4,17.4,0,0,1-8-5.56q-3.27-4-3.26-10.49,0-25.83,40.14-25.83,17.22,0,27.64,5.83a17.31,17.31,0,0,1,4.72,3.4q1.39,1.6,1.39,5.62t-1.6,6q-1.6,2-3.19,2T309,73.86a22.75,22.75,0,0,0-11-3.26q-4.58,0-4.58,4.58,0,3.06,3.19,4.86a36.14,36.14,0,0,0,7.78,3.13,90.07,90.07,0,0,1,9.17,3.19,18,18,0,0,1,7.78,6.25,18.24,18.24,0,0,1,3.19,11q0,25.83-40.14,25.83-19.58,0-31.94-5.69a17.52,17.52,0,0,1-5.42-3.12q-1.67-1.59-1.67-5.83t1.74-6q1.74-1.8,2.92-1.81t8,3.06a33.27,33.27,0,0,0,13.75,3.06Q278.62,113.09,278.62,108.23Z"/><path class="cls-2" d="M457.22,120.46l.14-33.89q0-4.17-2.08-6.25a7.07,7.07,0,0,0-5.21-2.08,8.66,8.66,0,0,0-5.69,2.15,7.45,7.45,0,0,0-2.57,6l.14,20.14q0,9.58-.14,13.19T439.93,125q-1.74,1.6-6.74,1.6l-26.67.28q-4.45,0-6.18-1.6a6.19,6.19,0,0,1-1.74-4.79l.14-33.89q0-4.17-2.08-6.25a7.06,7.06,0,0,0-5.21-2.08,8.66,8.66,0,0,0-5.69,2.15,7.45,7.45,0,0,0-2.57,6V94.9q0,18.33-.83,25a7.34,7.34,0,0,1-2.36,4.17q-1.95,1.81-6.87,2.15t-9.79.35q-4.86,0-16.53-.56a8,8,0,0,1-5.28-1.94,6.63,6.63,0,0,1-2.22-4.17q-1-9-1-27.64t.56-25.48q.55-6.88,2.08-9t6.25-2.08h27.08q4.72,0,6.32,2.08t2,7.08V65q10.69-11.11,27.22-11.11a37.85,37.85,0,0,1,17.64,3.89,24.53,24.53,0,0,1,11.11,11.39,29.61,29.61,0,0,1,12.57-11.39,39,39,0,0,1,17.29-3.89q14.17,0,22.92,7.5t9,20.69q.21,13.2.21,23.61t-.14,14q-.14,3.61-1.87,5.21t-6.74,1.6l-26.67.28q-4.45,0-6.18-1.6A6.19,6.19,0,0,1,457.22,120.46Z"/><path class="cls-2" d="M564.85,129.48q-51.8,0-51.8-37.78,0-17.92,13.19-27.78t38.61-9.86q25.42,0,38.61,9.86t13.19,27.78Q616.65,129.48,564.85,129.48Zm0-22.22q8.19,0,8.19-15.55,0-7.08-1.67-10.9T564.85,77q-4.86,0-6.53,3.82t-1.67,10.9Q556.66,107.26,564.85,107.26Z"/><path class="cls-3" d="M688.87,75.74q-6.53,0-9.72,4.31A17.44,17.44,0,0,0,676,90.74a16.78,16.78,0,0,0,3.75,11q3.75,4.58,12.08,4.58a32.77,32.77,0,0,0,7.78-1.39,32.86,32.86,0,0,1,7.22-1.39q4.86,0,5.14,9.3a54.29,54.29,0,0,1-.49,7.5q-.49,3.47-5.21,5-13.89,4.3-24.51,4.31a160.11,160.11,0,0,1-17.36-.76,64.14,64.14,0,0,1-13.61-3.12,34.28,34.28,0,0,1-11.39-6.25A28.36,28.36,0,0,1,632,109q-2.85-6.59-2.85-16.67a36.56,36.56,0,0,1,4.37-18,29.89,29.89,0,0,1,12-12.08q14.44-7.78,36.11-7.78a79.86,79.86,0,0,1,23.75,3.75q5.14,1.67,5.14,11.18t-4.86,9.51a32.91,32.91,0,0,1-7.57-1.6A34.22,34.22,0,0,0,688.87,75.74Z"/><path class="cls-3" d="M773.45,129.48q-51.8,0-51.8-37.78,0-17.92,13.19-27.78t38.61-9.86q25.42,0,38.61,9.86t13.19,27.78Q825.25,129.48,773.45,129.48Zm0-22.22q8.19,0,8.19-15.55,0-7.08-1.67-10.9T773.45,77q-4.86,0-6.53,3.82t-1.67,10.9Q765.25,107.26,773.45,107.26Z"/><path class="cls-3" d="M848.17,24.91h26.67q4.58,0,6.11,2.15t1.94,6.88q.83,16.67.83,46t-1.11,40.48a6.57,6.57,0,0,1-2.22,4q-1.95,1.81-6.87,2.15t-11.6.35q-6.67,0-11.94-.28-9-.69-9.44-6.25-1.39-12.08-1.39-42.84t1.11-43.68q.42-4.72,1.87-6.87T848.17,24.91Z"/><path class="cls-3" d="M909.41,24.91h26.67q4.58,0,6.11,2.15t1.94,6.88Q945,50.6,945,80t-1.11,40.48a6.57,6.57,0,0,1-2.22,4q-1.95,1.81-6.87,2.15t-11.6.35q-6.67,0-11.94-.28-9-.69-9.44-6.25-1.39-12.08-1.39-42.84t1.11-43.68q.42-4.72,1.87-6.87T909.41,24.91Z"/><path class="cls-3" d="M970.52,56.15H997.6q4.72,0,6.32,2.08t2.08,9.24q.48,7.15.49,26.11t-.83,26.73a7.34,7.34,0,0,1-2.36,4.17q-1.95,1.81-6.87,2.15t-11.74.35q-6.81,0-12.36-.35t-7.5-2.15a6.63,6.63,0,0,1-2.22-4.17q-1-9-1-27.71t.56-25.48q.55-6.8,2.08-8.89T970.52,56.15Zm15-32.78q9.17,0,13.82,3.68A12.15,12.15,0,0,1,1004,37.13q0,15-20,15a25.91,25.91,0,0,1-13.75-3.47,11.4,11.4,0,0,1-5.69-10.42Q964.54,23.38,985.52,23.38Z"/><path class="cls-3" d="M1029,75.88q0-2.22-3.06-2.22-5.42,0-6.39-3.61a20.35,20.35,0,0,1-.56-5.56q0-3.75,1-5.35a6.51,6.51,0,0,1,4-2.36,14.76,14.76,0,0,0,5.42-2.64q2.43-1.87,10-8.26A132,132,0,0,1,1050,37.54a13.35,13.35,0,0,1,7.43-1.94h6.94q4.86,0,6.53,1.18a4.2,4.2,0,0,1,1.67,3.68V53.65q0,2.92,2.5,2.92H1090q3.61,0,5.21,1.53t1.6,7q0,5.49-1.67,7a7.17,7.17,0,0,1-5,1.53h-14.44q-1.95,0-2.5,1a5.66,5.66,0,0,0-.56,2.78V94.07a11.64,11.64,0,0,0,3.54,7.92q3.26,3.2,9.24,3.19a21.58,21.58,0,0,0,7.22-1.6,21.3,21.3,0,0,1,5.83-1.6q3.75,0,3.75,11.11,0,8.06-4.3,9.72a63.68,63.68,0,0,1-12.5,2.5,134.28,134.28,0,0,1-16.11,1,86,86,0,0,1-15.35-1.32,42.51,42.51,0,0,1-13.26-4.65q-11.67-6.8-11.67-26Z"/><path class="cls-3" d="M1163.84,53.52q45.27,0,45.69,29.44.28,12.5.28,22.92t-.14,14q-.14,3.61-1.87,5.21t-6.74,1.6h-29.44q-4.45,0-6.11-1.6a6.76,6.76,0,0,1-1.81-4.79,3.11,3.11,0,0,0-.07-.49,3.08,3.08,0,0,1-.07-.62q-9.17,9.45-25,9.44-11,0-18.68-5.49a17.56,17.56,0,0,1-7.71-15.14q0-9.65,5.49-15.42a28,28,0,0,1,13.05-7.85A61,61,0,0,1,1147,82.68a86.52,86.52,0,0,1,17,1.67v-.56q0-6.94-2.71-10t-8.75-3.06a41,41,0,0,0-10.07,1,29,29,0,0,0-6.11,2.15q-5.7,3.33-7.92,3.33a5.07,5.07,0,0,1-4-2.08q-1.74-2.08-1.74-6.46t1.6-6a17.67,17.67,0,0,1,5.07-3.33Q1141.48,53.52,1163.84,53.52Zm-6.53,56.8q6.11,0,6.25-2.36.28-4.58.28-12.08,0-2.92-4.44-2.92a11.45,11.45,0,0,0-7.22,2.15,7.5,7.5,0,0,0-2.78,6.32,9,9,0,0,0,2.29,6.53A7.53,7.53,0,0,0,1157.31,110.32Z"/><path class="cls-4" d="M68.22,119.21q-25,0-39.51-12.71T14.19,70.6q0-14.17,4.65-24.86A41.74,41.74,0,0,1,32,28.66Q48.77,16,76.27,16a134.32,134.32,0,0,1,35.55,4.86q6.8,2.22,6.81,11,0,11.95-7.5,11.94-1.25,0-8.19-1.11a72.57,72.57,0,0,0-9.72-1.11q-9.86,0-15.21,6.87a25.9,25.9,0,0,0-5.35,16.39,28.67,28.67,0,0,0,5,16.74,16.4,16.4,0,0,0,13.61,7.5q5.83.28,20.69.28,7.22,0,7.92,6.81a30.83,30.83,0,0,1,.42,5.07,33.38,33.38,0,0,1-.42,5.21q-.83,5-7.78,7.29t-20,3.89A198.37,198.37,0,0,1,68.22,119.21Z"/><path class="cls-4" d="M182.38,119.48q-51.8,0-51.8-37.78,0-17.92,13.19-27.78t38.61-9.86q25.42,0,38.61,9.86t13.19,27.78Q234.18,119.48,182.38,119.48Zm0-22.22q8.19,0,8.19-15.55,0-7.08-1.67-10.9T182.38,67q-4.86,0-6.53,3.82t-1.67,10.9Q174.18,97.26,182.38,97.26Z"/><path class="cls-4" d="M278.62,98.23a7,7,0,0,0-3.26-6.11,24.85,24.85,0,0,0-7.92-3.4q-4.66-1.18-9.37-2.78a17.4,17.4,0,0,1-8-5.56q-3.27-4-3.26-10.49,0-25.83,40.14-25.83,17.22,0,27.64,5.83a17.31,17.31,0,0,1,4.72,3.4q1.39,1.6,1.39,5.62t-1.6,6q-1.6,2-3.19,2T309,63.86a22.75,22.75,0,0,0-11-3.26q-4.58,0-4.58,4.58,0,3.06,3.19,4.86a36.14,36.14,0,0,0,7.78,3.13,90.07,90.07,0,0,1,9.17,3.19,18,18,0,0,1,7.78,6.25,18.24,18.24,0,0,1,3.19,11q0,25.83-40.14,25.83-19.58,0-31.94-5.69a17.52,17.52,0,0,1-5.42-3.12q-1.67-1.59-1.67-5.83t1.74-6q1.74-1.8,2.92-1.81t8,3.06a33.27,33.27,0,0,0,13.75,3.06Q278.62,103.09,278.62,98.23Z"/><path class="cls-4" d="M457.22,110.46l.14-33.89q0-4.17-2.08-6.25a7.07,7.07,0,0,0-5.21-2.08,8.66,8.66,0,0,0-5.69,2.15,7.45,7.45,0,0,0-2.57,6l.14,20.14q0,9.58-.14,13.19T439.93,115q-1.74,1.6-6.74,1.6l-26.67.28q-4.45,0-6.18-1.6a6.19,6.19,0,0,1-1.74-4.79l.14-33.89q0-4.17-2.08-6.25a7.06,7.06,0,0,0-5.21-2.08,8.66,8.66,0,0,0-5.69,2.15,7.45,7.45,0,0,0-2.57,6V84.9q0,18.33-.83,25a7.34,7.34,0,0,1-2.36,4.17q-1.95,1.81-6.87,2.15t-9.79.35q-4.86,0-16.53-.56a8,8,0,0,1-5.28-1.94,6.63,6.63,0,0,1-2.22-4.17q-1-9-1-27.64t.56-25.48q.55-6.88,2.08-9t6.25-2.08h27.08q4.72,0,6.32,2.08t2,7.08V55q10.69-11.11,27.22-11.11a37.85,37.85,0,0,1,17.64,3.89,24.53,24.53,0,0,1,11.11,11.39,29.61,29.61,0,0,1,12.57-11.39,39,39,0,0,1,17.29-3.89q14.17,0,22.92,7.5t9,20.69q.21,13.2.21,23.61t-.14,14q-.14,3.61-1.87,5.21t-6.74,1.6l-26.67.28q-4.45,0-6.18-1.6A6.19,6.19,0,0,1,457.22,110.46Z"/><path class="cls-4" d="M564.85,119.48q-51.8,0-51.8-37.78,0-17.92,13.19-27.78t38.61-9.86q25.42,0,38.61,9.86t13.19,27.78Q616.65,119.48,564.85,119.48Zm0-22.22q8.19,0,8.19-15.55,0-7.08-1.67-10.9T564.85,67q-4.86,0-6.53,3.82t-1.67,10.9Q556.66,97.26,564.85,97.26Z"/><path class="cls-4" d="M688.87,65.74q-6.53,0-9.72,4.31A17.44,17.44,0,0,0,676,80.74a16.78,16.78,0,0,0,3.75,11q3.75,4.58,12.08,4.58a32.77,32.77,0,0,0,7.78-1.39,32.86,32.86,0,0,1,7.22-1.39q4.86,0,5.14,9.3a54.29,54.29,0,0,1-.49,7.5q-.49,3.47-5.21,5-13.89,4.3-24.51,4.31a160.11,160.11,0,0,1-17.36-.76,64.14,64.14,0,0,1-13.61-3.12,34.28,34.28,0,0,1-11.39-6.25A28.36,28.36,0,0,1,632,99q-2.85-6.59-2.85-16.67a36.56,36.56,0,0,1,4.37-18,29.89,29.89,0,0,1,12-12.08q14.44-7.78,36.11-7.78a79.86,79.86,0,0,1,23.75,3.75q5.14,1.67,5.14,11.18t-4.86,9.51a32.91,32.91,0,0,1-7.57-1.6A34.22,34.22,0,0,0,688.87,65.74Z"/><path class="cls-4" d="M773.45,119.48q-51.8,0-51.8-37.78,0-17.92,13.19-27.78t38.61-9.86q25.42,0,38.61,9.86t13.19,27.78Q825.25,119.48,773.45,119.48Zm0-22.22q8.19,0,8.19-15.55,0-7.08-1.67-10.9T773.45,67q-4.86,0-6.53,3.82t-1.67,10.9Q765.25,97.26,773.45,97.26Z"/><path class="cls-4" d="M848.17,14.91h26.67q4.58,0,6.11,2.15t1.94,6.88q.83,16.67.83,46t-1.11,40.48a6.57,6.57,0,0,1-2.22,4q-1.95,1.81-6.87,2.15t-11.6.35q-6.67,0-11.94-.28-9-.69-9.44-6.25-1.39-12.08-1.39-42.84t1.11-43.68q.42-4.72,1.87-6.87T848.17,14.91Z"/><path class="cls-4" d="M909.41,14.91h26.67q4.58,0,6.11,2.15t1.94,6.88Q945,40.6,945,70t-1.11,40.48a6.57,6.57,0,0,1-2.22,4q-1.95,1.81-6.87,2.15t-11.6.35q-6.67,0-11.94-.28-9-.69-9.44-6.25-1.39-12.08-1.39-42.84t1.11-43.68q.42-4.72,1.87-6.87T909.41,14.91Z"/><path class="cls-4" d="M970.52,46.15H997.6q4.72,0,6.32,2.08t2.08,9.24q.48,7.15.49,26.11t-.83,26.73a7.34,7.34,0,0,1-2.36,4.17q-1.95,1.81-6.87,2.15t-11.74.35q-6.81,0-12.36-.35t-7.5-2.15a6.63,6.63,0,0,1-2.22-4.17q-1-9-1-27.71t.56-25.48q.55-6.8,2.08-8.89T970.52,46.15Zm15-32.78q9.17,0,13.82,3.68A12.15,12.15,0,0,1,1004,27.13q0,15-20,15a25.91,25.91,0,0,1-13.75-3.47,11.4,11.4,0,0,1-5.69-10.42Q964.54,13.38,985.52,13.38Z"/><path class="cls-4" d="M1029,65.88q0-2.22-3.06-2.22-5.42,0-6.39-3.61a20.35,20.35,0,0,1-.56-5.56q0-3.75,1-5.35a6.51,6.51,0,0,1,4-2.36,14.76,14.76,0,0,0,5.42-2.64q2.43-1.87,10-8.26A132,132,0,0,1,1050,27.54a13.35,13.35,0,0,1,7.43-1.94h6.94q4.86,0,6.53,1.18a4.2,4.2,0,0,1,1.67,3.68V43.65q0,2.92,2.5,2.92H1090q3.61,0,5.21,1.53t1.6,7q0,5.49-1.67,7a7.17,7.17,0,0,1-5,1.53h-14.44q-1.95,0-2.5,1a5.66,5.66,0,0,0-.56,2.78V84.07a11.64,11.64,0,0,0,3.54,7.92q3.26,3.2,9.24,3.19a21.58,21.58,0,0,0,7.22-1.6,21.3,21.3,0,0,1,5.83-1.6q3.75,0,3.75,11.11,0,8.06-4.3,9.72a63.68,63.68,0,0,1-12.5,2.5,134.28,134.28,0,0,1-16.11,1,86,86,0,0,1-15.35-1.32,42.51,42.51,0,0,1-13.26-4.65q-11.67-6.8-11.67-26Z"/><path class="cls-4" d="M1163.84,43.52q45.27,0,45.69,29.44.28,12.5.28,22.92t-.14,14q-.14,3.61-1.87,5.21t-6.74,1.6h-29.44q-4.45,0-6.11-1.6a6.76,6.76,0,0,1-1.81-4.79,3.11,3.11,0,0,0-.07-.49,3.08,3.08,0,0,1-.07-.62q-9.17,9.45-25,9.44-11,0-18.68-5.49A17.56,17.56,0,0,1,1112.17,98q0-9.65,5.49-15.42a28,28,0,0,1,13.05-7.85A61,61,0,0,1,1147,72.68a86.52,86.52,0,0,1,17,1.67v-.56q0-6.94-2.71-10t-8.75-3.06a41,41,0,0,0-10.07,1,29,29,0,0,0-6.11,2.15q-5.7,3.33-7.92,3.33a5.07,5.07,0,0,1-4-2.08q-1.74-2.08-1.74-6.46t1.6-6a17.67,17.67,0,0,1,5.07-3.33Q1141.48,43.52,1163.84,43.52Zm-6.53,56.8q6.11,0,6.25-2.36.28-4.58.28-12.08,0-2.92-4.44-2.92a11.45,11.45,0,0,0-7.22,2.15,7.5,7.5,0,0,0-2.78,6.32,9,9,0,0,0,2.29,6.53A7.53,7.53,0,0,0,1157.31,100.32Z"/></g></svg>